<svg id="visual" viewBox="0 0 960 300" width="960" height="300" xmlns="http://www.w3.org/2000/svg" xmlns:xlink="http://www.w3.org/1999/xlink" version="1.1"><rect x="0" y="0" width="960" height="300" fill="#000000"></rect><path d="M0 174L46 174L46 143L91 143L91 185L137 185L137 168L183 168L183 163L229 163L229 125L274 125L274 156L320 156L320 149L366 149L366 164L411 164L411 176L457 176L457 168L503 168L503 150L549 150L549 151L594 151L594 126L640 126L640 185L686 185L686 159L731 159L731 173L777 173L777 169L823 169L823 130L869 130L869 171L914 171L914 133L960 133L960 130L960 301L960 301L914 301L914 301L869 301L869 301L823 301L823 301L777 301L777 301L731 301L731 301L686 301L686 301L640 301L640 301L594 301L594 301L549 301L549 301L503 301L503 301L457 301L457 301L411 301L411 301L366 301L366 301L320 301L320 301L274 301L274 301L229 301L229 301L183 301L183 301L137 301L137 301L91 301L91 301L46 301L46 301L0 301Z" fill="#518755"></path><path d="M0 189L46 189L46 181L91 181L91 178L137 178L137 223L183 223L183 230L229 230L229 204L274 204L274 179L320 179L320 179L366 179L366 187L411 187L411 173L457 173L457 216L503 216L503 176L549 176L549 194L594 194L594 189L640 189L640 192L686 192L686 209L731 209L731 190L777 190L777 212L823 212L823 232L869 232L869 196L914 196L914 186L960 186L960 202L960 301L960 301L914 301L914 301L869 301L869 301L823 301L823 301L777 301L777 301L731 301L731 301L686 301L686 301L640 301L640 301L594 301L594 301L549 301L549 301L503 301L503 301L457 301L457 301L411 301L411 301L366 301L366 301L320 301L320 301L274 301L274 301L229 301L229 301L183 301L183 301L137 301L137 301L91 301L91 301L46 301L46 301L0 301Z" fill="#86a086"></path><path d="M0 241L46 241L46 247L91 247L91 271L137 271L137 251L183 251L183 241L229 241L229 245L274 245L274 268L320 268L320 237L366 237L366 272L411 272L411 254L457 254L457 269L503 269L503 259L549 259L549 248L594 248L594 272L640 272L640 231L686 231L686 270L731 270L731 252L777 252L777 256L823 256L823 244L869 244L869 251L914 251L914 264L960 264L960 247L960 301L960 301L914 301L914 301L869 301L869 301L823 301L823 301L777 301L777 301L731 301L731 301L686 301L686 301L640 301L640 301L594 301L594 301L549 301L549 301L503 301L503 301L457 301L457 301L411 301L411 301L366 301L366 301L320 301L320 301L274 301L274 301L229 301L229 301L183 301L183 301L137 301L137 301L91 301L91 301L46 301L46 301L0 301Z" fill="#b9b9b9"></path></svg>