<svg id="visual" viewBox="0 0 900 300" width="900" height="300" xmlns="http://www.w3.org/2000/svg" xmlns:xlink="http://www.w3.org/1999/xlink" version="1.1"><rect x="0" y="0" width="900" height="300" fill="#5188F0"></rect><path d="M0 79L41 79L41 76L82 76L82 37L123 37L123 103L164 103L164 91L205 91L205 100L245 100L245 79L286 79L286 45L327 45L327 68L368 68L368 43L409 43L409 108L450 108L450 59L491 59L491 60L532 60L532 75L573 75L573 68L614 68L614 92L655 92L655 84L695 84L695 62L736 62L736 111L777 111L777 46L818 46L818 81L859 81L859 103L900 103L900 71L900 301L900 301L859 301L859 301L818 301L818 301L777 301L777 301L736 301L736 301L695 301L695 301L655 301L655 301L614 301L614 301L573 301L573 301L532 301L532 301L491 301L491 301L450 301L450 301L409 301L409 301L368 301L368 301L327 301L327 301L286 301L286 301L245 301L245 301L205 301L205 301L164 301L164 301L123 301L123 301L82 301L82 301L41 301L41 301L0 301Z" fill="#434656"></path><path d="M0 152L41 152L41 134L82 134L82 170L123 170L123 175L164 175L164 128L205 128L205 169L245 169L245 112L286 112L286 171L327 171L327 175L368 175L368 135L409 135L409 140L450 140L450 131L491 131L491 116L532 116L532 150L573 150L573 137L614 137L614 148L655 148L655 152L695 152L695 163L736 163L736 127L777 127L777 133L818 133L818 112L859 112L859 176L900 176L900 186L900 301L900 301L859 301L859 301L818 301L818 301L777 301L777 301L736 301L736 301L695 301L695 301L655 301L655 301L614 301L614 301L573 301L573 301L532 301L532 301L491 301L491 301L450 301L450 301L409 301L409 301L368 301L368 301L327 301L327 301L286 301L286 301L245 301L245 301L205 301L205 301L164 301L164 301L123 301L123 301L82 301L82 301L41 301L41 301L0 301Z" fill="#737688"></path><path d="M0 191L41 191L41 247L82 247L82 254L123 254L123 240L164 240L164 193L205 193L205 212L245 212L245 222L286 222L286 260L327 260L327 220L368 220L368 239L409 239L409 207L450 207L450 199L491 199L491 229L532 229L532 261L573 261L573 218L614 218L614 254L655 254L655 218L695 218L695 195L736 195L736 244L777 244L777 233L818 233L818 209L859 209L859 247L900 247L900 223L900 301L900 301L859 301L859 301L818 301L818 301L777 301L777 301L736 301L736 301L695 301L695 301L655 301L655 301L614 301L614 301L573 301L573 301L532 301L532 301L491 301L491 301L450 301L450 301L409 301L409 301L368 301L368 301L327 301L327 301L286 301L286 301L245 301L245 301L205 301L205 301L164 301L164 301L123 301L123 301L82 301L82 301L41 301L41 301L0 301Z" fill="#a7aabd"></path></svg>