<svg id="visual" viewBox="0 0 900 450" width="900" height="450" xmlns="http://www.w3.org/2000/svg" xmlns:xlink="http://www.w3.org/1999/xlink" version="1.1"><rect x="0" y="0" width="900" height="450" fill="#5188F0"></rect><path d="M0 242L18.8 231.3C37.7 220.7 75.3 199.3 112.8 196.7C150.3 194 187.7 210 225.2 226.5C262.7 243 300.3 260 337.8 260C375.3 260 412.7 243 450.2 244.5C487.7 246 525.3 266 562.8 268.3C600.3 270.7 637.7 255.3 675.2 234.3C712.7 213.3 750.3 186.7 787.8 177.8C825.3 169 862.7 178 881.3 182.5L900 187L900 451L881.3 451C862.7 451 825.3 451 787.8 451C750.3 451 712.7 451 675.2 451C637.7 451 600.3 451 562.8 451C525.3 451 487.7 451 450.2 451C412.7 451 375.3 451 337.8 451C300.3 451 262.7 451 225.2 451C187.7 451 150.3 451 112.8 451C75.3 451 37.7 451 18.8 451L0 451Z" fill="#1F2130" stroke-linecap="round" stroke-linejoin="miter"></path></svg>