<svg id="visual" viewBox="0 0 900 600" width="900" height="600" xmlns="http://www.w3.org/2000/svg" xmlns:xlink="http://www.w3.org/1999/xlink" version="1.1"><rect x="0" y="0" width="900" height="600" fill="#5188F0"></rect><path d="M0 220L18.8 246.3C37.7 272.7 75.3 325.3 112.8 351.3C150.3 377.3 187.7 376.7 225.2 353.3C262.7 330 300.3 284 337.8 278.2C375.3 272.3 412.7 306.7 450.2 320.8C487.7 335 525.3 329 562.8 307.3C600.3 285.7 637.7 248.3 675.2 253.5C712.7 258.7 750.3 306.3 787.8 309.2C825.3 312 862.7 270 881.3 249L900 228L900 601L881.3 601C862.7 601 825.3 601 787.8 601C750.3 601 712.7 601 675.2 601C637.7 601 600.3 601 562.8 601C525.3 601 487.7 601 450.2 601C412.7 601 375.3 601 337.8 601C300.3 601 262.7 601 225.2 601C187.7 601 150.3 601 112.8 601C75.3 601 37.7 601 18.8 601L0 601Z" fill="#A7AABD" stroke-linecap="round" stroke-linejoin="miter"></path></svg>